# xmcd
#
# Track frame offsets:
#	150
#	10647
#	27866
#	46578
#	62006
#	78113
#	95348
#	113222
#	131699
#	151927
#	167394
#
# Disc length: 2412 seconds
#
# Revision: 0
# Processed by: cddbd v1.5.2PL0 Copyright (c) Steve Scherf et al.
# Submitted via: EasyCDDAExtractor 16.0.6.1
#
DISCID=6f096a0b
DTITLE=Μεγάλα χασάπικα 2
DYEAR=2012
DGENRE=Λαϊκή
TTITLE0=Αγγελόπουλος Στάθης - Μα σ' αγαπώ
TTITLE1=Γαρμπή Καίτη - Χαμένα
TTITLE2=Βίσση Άννα - Αγάπη είναι
TTITLE3=Θεοδωρίδου Νατάσα - Τι φταίω
TTITLE4=Πάζης Χρήστος - Τα θαλασσόξυλα
TTITLE5=Δόξας Κώστας - Λέξη-λέξη
TTITLE6=Τριαντάφυλλος - Και σε ρωτάω
TTITLE7=Μαντώ - Δανεικά
TTITLE8=Μιλλή Εύα - Παραγγελιά
TTITLE9=Ίμβριος Πέτρος - Ευχαρίστως
TTITLE10=Σαμολαδάς Άρης - Χίλια μέτρησα φεγγάρια
EXTD=
EXTT0=
EXTT1=
EXTT2=
EXTT3=
EXTT4=
EXTT5=
EXTT6=
EXTT7=
EXTT8=
EXTT9=
EXTT10=
PLAYORDER=
